# File created by Blade
# Date/Time:  Tue Jan 27 18:35:03 2015
# Frame Rate: 120.000 fps
#------------------------------------------------------
:FULLY-SPECIFIED
:DEGREES
1272
root -4.014580 31.578102 -1.960975 -13.623166 16.601844 -15.882650
Spine 13.949286 -14.157593 -3.536789
Head 10.063636 -1.819905 19.701444
LeftShoulder -11.977553 11.273579 19.398810
LeftArm 30.807651 -21.991426 -76.493788
LeftForeArm 121.662659 -0.000000 136.416959
LeftHand 9.829025 -0.000000 -3.980755
LeftHandThumb1 -26.253704 0.000000 33.147579
RightShoulder -16.357101 -9.848883 -4.702268
RightArm 1.291368 -34.462560 84.963419
RightForeArm -23.431795 -0.000000 28.733615
RightHand -13.773704 -0.000000 12.246120
RightHandThumb1 -24.326973 -0.000000 -32.862282
LeftUpLeg -4.379549 2.933362 10.083306
LeftLeg 35.820864 -0.000000 -0.000000
LeftFoot -30.781864 7.168736 -18.384925
LeftToeBase 10.995057 -0.000000 -0.000000
RightUpLeg -87.411351 5.662608 24.810253
RightLeg 84.572054 -0.000000 -0.000000
RightFoot 4.400612 -13.263420 15.161337
RightToeBase 5.098253 -0.000000 -0.000000
1273
root -4.015176 31.577562 -1.957888 -13.619010 16.599930 -15.854040
Spine 13.923208 -14.146799 -3.543592
Head 10.012837 -1.784468 19.726200
LeftShoulder -11.990973 11.266883 19.390262
LeftArm 30.795501 -21.888187 -76.415389
LeftForeArm 121.704754 -0.000000 136.386817
LeftHand 9.824042 -0.000000 -4.002825
LeftHandThumb1 -26.253704 0.000000 33.147579
RightShoulder -16.374655 -9.836131 -4.727878
RightArm 1.254663 -34.454044 84.981332
RightForeArm -23.438351 0.000000 28.805638
RightHand -13.721678 -0.000000 12.227349
RightHandThumb1 -24.326973 -0.000000 -32.862282
LeftUpLeg -4.366627 2.914828 10.054979
LeftLeg 35.814208 -0.000000 -0.000000
LeftFoot -30.761841 7.222767 -18.344857
LeftToeBase 10.916302 -0.000000 -0.000000
RightUpLeg -87.422981 5.646458 24.798216
RightLeg 84.607680 -0.000000 -0.000000
RightFoot 4.414937 -13.207788 15.222310
RightToeBase 5.079808 -0.000000 -0.000000
1274
root -4.015276 31.577376 -1.956791 -13.619312 16.576493 -15.845252
Spine 13.904706 -14.136418 -3.518557
Head 9.943417 -1.736133 19.734952
LeftShoulder -12.018734 11.260735 19.369556
LeftArm 30.786657 -21.780810 -76.344916
LeftForeArm 121.764950 -0.000000 136.354452
LeftHand 9.760542 -0.000000 -4.051995
LeftHandThumb1 -26.253704 0.000000 33.147579
RightShoulder -16.371514 -9.846130 -4.749306
RightArm 1.265073 -34.463925 84.960666
RightForeArm -23.402587 0.000000 28.888721
RightHand -13.739969 -0.000000 12.204605
RightHandThumb1 -24.326973 -0.000000 -32.862282
LeftUpLeg -4.357857 2.904036 10.042856
LeftLeg 35.817578 -0.000000 -0.000000
LeftFoot -30.762518 7.285344 -18.341954
LeftToeBase 10.913306 -0.000000 -0.000000
RightUpLeg -87.422057 5.640187 24.811930
RightLeg 84.624097 -0.000000 -0.000000
RightFoot 4.426805 -13.170320 15.224074
RightToeBase 5.141741 -0.000000 -0.000000
1275
root -4.015477 31.577024 -1.955975 -13.613431 16.548399 -15.838656
Spine 13.879610 -14.108761 -3.482513
Head 9.862036 -1.699171 19.751284
LeftShoulder -12.037115 11.278507 19.344619
LeftArm 30.813834 -21.685770 -76.301426
LeftForeArm 121.852145 0.000000 136.314228
LeftHand 9.772370 -0.000000 -4.144114
LeftHandThumb1 -26.253704 0.000000 33.147579
RightShoulder -16.379740 -9.855970 -4.770014
RightArm 1.268067 -34.464061 84.945164
RightForeArm -23.398608 -0.000000 28.975175
RightHand -13.746245 0.000000 12.176782
RightHandThumb1 -24.326973 -0.000000 -32.862282
LeftUpLeg -4.356998 2.903824 10.030765
LeftLeg 35.819624 -0.000000 -0.000000
LeftFoot -30.752177 7.378720 -18.313065
LeftToeBase 10.780331 -0.000000 -0.000000
RightUpLeg -87.428531 5.641327 24.823320
RightLeg 84.638583 -0.000000 -0.000000
RightFoot 4.458179 -13.110915 15.255995
RightToeBase 5.096131 -0.000000 -0.000000
1276
root -4.016421 31.576958 -1.954929 -13.618361 16.522442 -15.833048
Spine 13.873823 -14.091306 -3.455767
Head 9.765038 -1.677492 19.762321
LeftShoulder -12.067700 11.265179 19.336822
LeftArm 30.804570 -21.576189 -76.255781
LeftForeArm 121.955189 -0.000000 136.273149
LeftHand 9.750479 -0.000000 -4.184886
LeftHandThumb1 -26.253704 0.000000 33.147579
RightShoulder -16.372792 -9.877444 -4.782873
RightArm 1.292822 -34.444907 84.913972
RightForeArm -23.358161 -0.000000 29.069309
RightHand -13.706686 -0.000000 12.274987
RightHandThumb1 -24.326973 -0.000000 -32.862282
LeftUpLeg -4.341780 2.894878 10.022435
LeftLeg 35.815645 -0.000000 -0.000000
LeftFoot -30.748690 7.446545 -18.299671
LeftToeBase 10.723423 -0.000000 -0.000000
RightUpLeg -87.426187 5.640235 24.833579
RightLeg 84.647952 -0.000000 -0.000000
RightFoot 4.464899 -13.077777 15.326138
RightToeBase 5.131491 -0.000000 -0.000000
1277
root -4.013909 31.576251 -1.953852 -13.604835 16.502919 -15.831136
Spine 13.837266 -14.081811 -3.404480
Head 9.682848 -1.646200 19.755264
LeftShoulder -12.111992 11.295940 19.316962
LeftArm 30.844604 -21.448391 -76.268960
LeftForeArm 122.030514 -0.000000 136.212069
LeftHand 9.787103 -0.000000 -4.162309
LeftHandThumb1 -26.253704 0.000000 33.147579
RightShoulder -16.363010 -9.877424 -4.814237
RightArm 1.280766 -34.422096 84.899337
RightForeArm -23.349574 -0.000000 29.162339
RightHand -13.745799 -0.000000 12.249286
RightHandThumb1 -24.326973 -0.000000 -32.862282
LeftUpLeg -4.344684 2.847040 10.001848
LeftLeg 35.810341 -0.000000 -0.000000
LeftFoot -30.759770 7.551230 -18.279847
LeftToeBase 10.688217 -0.000000 -0.000000
RightUpLeg -87.451191 5.632060 24.838210
RightLeg 84.668470 -0.000000 -0.000000
RightFoot 4.472444 -13.033092 15.334805
RightToeBase 5.133153 -0.000000 -0.000000
1278
root -4.012507 31.575175 -1.953537 -13.597439 16.499686 -15.816179
Spine 13.825279 -14.083611 -3.387585
Head 9.584998 -1.625655 19.760459
LeftShoulder -12.156807 11.300432 19.320523
LeftArm 30.855447 -21.314411 -76.261305
LeftForeArm 122.172351 -0.000000 136.158887
LeftHand 9.779724 -0.000000 -4.144360
LeftHandThumb1 -26.253704 0.000000 33.147579
RightShoulder -16.355917 -9.877895 -4.827185
RightArm 1.290639 -34.406535 84.869671
RightForeArm -23.375906 -0.000000 29.247512
RightHand -13.704930 -0.000000 12.283733
RightHandThumb1 -24.326973 -0.000000 -32.862282
LeftUpLeg -4.340513 2.797664 9.967694
LeftLeg 35.798130 -0.000000 -0.000000
LeftFoot -30.773538 7.645264 -18.279991
LeftToeBase 10.638401 -0.000000 -0.000000
RightUpLeg -87.479204 5.613738 24.823804
RightLeg 84.686893 -0.000000 -0.000000
RightFoot 4.499489 -12.995702 15.343967
RightToeBase 5.104345 -0.000000 -0.000000
1279
root -4.011654 31.574292 -1.954320 -13.586852 16.492662 -15.798979
Spine 13.812770 -14.071679 -3.370493
Head 9.491896 -1.616607 19.765801
LeftShoulder -12.200335 11.314339 19.315335
LeftArm 30.892564 -21.170330 -76.236667
LeftForeArm 122.252803 0.000000 136.086251
LeftHand 9.749327 0.000000 -4.120575
LeftHandThumb1 -26.253704 0.000000 33.147579
RightShoulder -16.347600 -9.882754 -4.834131
RightArm 1.313060 -34.369503 84.839849
RightForeArm -23.399336 -0.000000 29.317165
RightHand -13.695006 -0.000000 12.241709
RightHandThumb1 -24.326973 -0.000000 -32.862282
LeftUpLeg -4.340650 2.752296 9.932811
LeftLeg 35.786267 -0.000000 -0.000000
LeftFoot -30.764797 7.755118 -18.253722
LeftToeBase 10.589376 -0.000000 -0.000000
RightUpLeg -87.505271 5.602745 24.800008
RightLeg 84.691305 -0.000000 -0.000000
RightFoot 4.521953 -12.966168 15.366121
RightToeBase 5.018054 -0.000000 -0.000000
1280
root -4.011467 31.573525 -1.954671 -13.583147 16.487490 -15.789704
Spine 13.806431 -14.054706 -3.347864
Head 9.402905 -1.613415 19.771557
LeftShoulder -12.230820 11.325017 19.312244
LeftArm 30.932416 -21.032639 -76.208118
LeftForeArm 122.368296 -0.000000 136.029925
LeftHand 9.727219 -0.000000 -4.172468
LeftHandThumb1 -26.253704 0.000000 33.147579
RightShoulder -16.347866 -9.876411 -4.837784
RightArm 1.331461 -34.343346 84.809361
RightForeArm -23.367009 -0.000000 29.387289
RightHand -13.713112 -0.000000 12.179689
RightHandThumb1 -24.326973 -0.000000 -32.862282
LeftUpLeg -4.334791 2.710166 9.910265
LeftLeg 35.772875 -0.000000 -0.000000
LeftFoot -30.781140 7.821306 -18.254237
LeftToeBase 10.591350 -0.000000 -0.000000
RightUpLeg -87.527086 5.587231 24.781486
RightLeg 84.694472 -0.000000 -0.000000
RightFoot 4.511000 -12.941173 15.370234
RightToeBase 5.040244 -0.000000 -0.000000
1281
root -4.013841 31.573069 -1.954163 -13.583675 16.481136 -15.769759
Spine 13.813327 -14.018088 -3.359872
Head 9.307929 -1.631219 19.821760
LeftShoulder -12.263158 11.340205 19.350032
LeftArm 30.982162 -20.850534 -76.191658
LeftForeArm 122.525524 -0.000000 135.946016
LeftHand 9.707547 0.000000 -4.311054
LeftHandThumb1 -26.253704 0.000000 33.147579
RightShoulder -16.346072 -9.859374 -4.822699
RightArm 1.333046 -34.305920 84.791696
RightForeArm -23.361842 -0.000000 29.444727
RightHand -13.745453 -0.000000 12.190783
RightHandThumb1 -24.326973 -0.000000 -32.862282
LeftUpLeg -4.318265 2.667725 9.883671
LeftLeg 35.752930 -0.000000 -0.000000
LeftFoot -30.796877 7.861777 -18.273416
LeftToeBase 10.623474 -0.000000 -0.000000
RightUpLeg -87.542696 5.590478 24.735922
RightLeg 84.690577 -0.000000 -0.000000
RightFoot 4.522927 -12.928318 15.361426
RightToeBase 5.002727 -0.000000 -0.000000
1282
root -4.011533 31.571764 -1.954083 -13.578541 16.463167 -15.763810
Spine 13.798938 -13.989358 -3.319471
Head 9.226564 -1.649056 19.812715
LeftShoulder -12.290151 11.338668 19.340404
LeftArm 31.013967 -20.680787 -76.136308
LeftForeArm 122.672483 0.000000 135.865876
LeftHand 9.682968 0.000000 -4.440565
LeftHandThumb1 -26.253704 0.000000 33.147579
RightShoulder -16.347827 -9.872046 -4.828682
RightArm 1.388408 -34.304969 84.737963
RightForeArm -23.338427 -0.000000 29.488311
RightHand -13.762147 -0.000000 12.202835
RightHandThumb1 -24.326973 -0.000000 -32.862282
LeftUpLeg -4.312685 2.638685 9.864287
LeftLeg 35.749744 -0.000000 -0.000000
LeftFoot -30.811126 7.927696 -18.265360
LeftToeBase 10.577228 -0.000000 -0.000000
RightUpLeg -87.563725 5.586286 24.710529
RightLeg 84.688865 -0.000000 -0.000000
RightFoot 4.514684 -12.915450 15.317687
RightToeBase 5.029470 -0.000000 -0.000000
1283
root -4.014114 31.571052 -1.953757 -13.583622 16.447538 -15.755712
Spine 13.808881 -13.950523 -3.315517
Head 9.131474 -1.681497 19.849234
LeftShoulder -12.343410 11.339042 19.380604
LeftArm 31.082578 -20.469021 -76.133591
LeftForeArm 122.842123 -0.000000 135.739786
LeftHand 9.661254 -0.000000 -4.363264
LeftHandThumb1 -26.253704 0.000000 33.147579
RightShoulder -16.342077 -9.846864 -4.823026
RightArm 1.392677 -34.282770 84.728243
RightForeArm -23.376587 -0.000000 29.523593
RightHand -13.733012 0.000000 12.200622
RightHandThumb1 -24.326973 -0.000000 -32.862282
LeftUpLeg -4.300960 2.628998 9.851574
LeftLeg 35.754774 -0.000000 -0.000000
LeftFoot -30.826506 7.971201 -18.311847
LeftToeBase 10.499973 -0.000000 -0.000000
RightUpLeg -87.573218 5.593125 24.681555
RightLeg 84.676790 -0.000000 -0.000000
RightFoot 4.514471 -12.939044 15.327024
RightToeBase 4.952833 -0.000000 -0.000000
